<svg width="24" height="24" viewBox="0 0 24 24" fill="none" xmlns="http://www.w3.org/2000/svg">
<path d="M4.9395 10.5615L9.5255 15.1465C10.1921 15.7833 11.0786 16.1387 12.0005 16.1387C12.9224 16.1387 13.8089 15.7833 14.4755 15.1465L19.0615 10.5615C19.3429 10.2801 19.501 9.89843 19.501 9.50048C19.501 9.10252 19.3429 8.72087 19.0615 8.43948C18.7801 8.15808 18.3984 7.99999 18.0005 7.99999C17.6025 7.99999 17.2209 8.15808 16.9395 8.43948L12.3535 13.0255C12.2597 13.1192 12.1326 13.1719 12 13.1719C11.8674 13.1719 11.7403 13.1192 11.6465 13.0255L7.0615 8.43947C6.7801 8.15808 6.39845 7.99999 6.0005 7.99999C5.60254 7.99999 5.22089 8.15808 4.9395 8.43947C4.6581 8.72087 4.50002 9.10252 4.50002 9.50047C4.50002 9.89843 4.6581 10.2801 4.9395 10.5615Z" fill="#8D949B"/>
</svg>
