<svg width="18" height="24" viewBox="0 0 18 24" fill="none" xmlns="http://www.w3.org/2000/svg">
<path d="M10.7125 11.7082C10.3266 11.9279 9.90596 12.0797 9.46875 12.1572V20.3814C9.84077 20.309 10.1984 20.1762 10.5276 19.9882L14.7819 17.5325C15.3178 17.2218 15.7628 16.7759 16.0724 16.2395C16.3821 15.703 16.5456 15.0947 16.5466 14.4753V9.56234C16.5444 9.18526 16.4812 8.81103 16.3596 8.4541L10.7125 11.7082Z" fill="#CCCFD2"/>
<path d="M7.52361 10.487C7.90168 10.7044 8.33018 10.8189 8.76632 10.8189C9.20246 10.8189 9.63096 10.7044 10.009 10.487L15.6561 7.23287C15.406 6.9455 15.1108 6.70066 14.7822 6.50793L10.5293 4.04934C9.99237 3.74061 9.38388 3.57812 8.76456 3.57812C8.14523 3.57812 7.53674 3.74061 6.99985 4.04934L2.7455 6.50582C2.42859 6.69139 2.14276 6.92553 1.89844 7.1997L7.52361 10.487Z" fill="#CCCFD2"/>
<path d="M8.05835 12.1572C7.62087 12.0799 7.19992 11.9281 6.81388 11.7083L1.18094 8.41602C1.05058 8.78426 0.982821 9.17174 0.980469 9.56237V14.4753C0.981501 15.0947 1.14501 15.703 1.45467 16.2395C1.76434 16.776 2.20931 17.2218 2.74517 17.5325L6.99953 19.9883C7.32866 20.1762 7.68633 20.309 8.05835 20.3814V12.1572Z" fill="#CCCFD2"/>
</svg>
