<svg width="17" height="18" viewBox="0 0 17 18" xmlns="http://www.w3.org/2000/svg">
<path d="M14.875 3.33332H12.6792C12.3403 1.68545 10.8907 0.502125 9.20832 0.5H7.79164C6.10927 0.502125 4.65969 1.68545 4.32082 3.33332H2.12499C1.73379 3.33332 1.41667 3.65045 1.41667 4.04164C1.41667 4.43284 1.73379 4.75 2.12499 4.75H2.83332V13.9583C2.83567 15.9134 4.41996 17.4977 6.37499 17.5H10.625C12.58 17.4977 14.1643 15.9134 14.1667 13.9583V4.75H14.875C15.2662 4.75 15.5833 4.43288 15.5833 4.04168C15.5833 3.65048 15.2662 3.33332 14.875 3.33332ZM7.79167 12.5417C7.79167 12.9329 7.47455 13.25 7.08335 13.25C6.69212 13.25 6.37499 12.9329 6.37499 12.5417V8.29168C6.37499 7.90048 6.69212 7.58336 7.08332 7.58336C7.47451 7.58336 7.79164 7.90048 7.79164 8.29168V12.5417H7.79167ZM10.625 12.5417C10.625 12.9329 10.3079 13.25 9.91667 13.25C9.52547 13.25 9.20835 12.9329 9.20835 12.5417V8.29168C9.20835 7.90048 9.52547 7.58336 9.91667 7.58336C10.3079 7.58336 10.625 7.90048 10.625 8.29168V12.5417ZM5.7878 3.33332C6.08908 2.48495 6.8914 1.91774 7.79167 1.91664H9.20835C10.1086 1.91774 10.9109 2.48495 11.2122 3.33332H5.7878Z" fill="#cccfd2"/>
</svg>
