<svg width="13" height="10" viewBox="0 0 13 10" fill="none" xmlns="http://www.w3.org/2000/svg">
<path fill-rule="evenodd" clip-rule="evenodd" d="M7.03437 9.55615C6.95654 9.43969 6.91498 9.30277 6.91495 9.1627L6.91495 1.2492C6.91498 1.10912 6.95654 0.972205 7.03437 0.855748C7.11221 0.739291 7.22282 0.648526 7.35224 0.594926C7.48165 0.541326 7.62405 0.527299 7.76143 0.554618C7.89881 0.581937 8.02501 0.649374 8.12407 0.748406L12.0808 4.70516C12.2136 4.83799 12.2882 5.01812 12.2882 5.20595C12.2882 5.39377 12.2136 5.57391 12.0808 5.70674L8.12407 9.66349C8.02501 9.76252 7.89881 9.82996 7.76143 9.85728C7.62405 9.8846 7.48165 9.87057 7.35224 9.81697C7.22282 9.76337 7.11221 9.6726 7.03437 9.55615ZM5.49828 9.1627L5.49828 1.2492C5.49825 1.10913 5.4567 0.972206 5.37886 0.855749C5.30103 0.739292 5.19041 0.648526 5.061 0.594927C4.93159 0.541327 4.78919 0.5273 4.65181 0.554618C4.51442 0.581937 4.38822 0.649375 4.28916 0.748407L0.332419 4.70516C0.199628 4.83799 0.125028 5.01812 0.125028 5.20595C0.125028 5.39377 0.199628 5.57391 0.332419 5.70674L4.28916 9.66349C4.38822 9.76252 4.51442 9.82996 4.65181 9.85728C4.78919 9.8846 4.93159 9.87057 5.061 9.81697C5.19041 9.76337 5.30103 9.67261 5.37886 9.55615C5.4567 9.43969 5.49825 9.30277 5.49828 9.1627Z" fill="#CCCFD2"/>
</svg>
