<svg width="17" height="18" viewBox="0 0 17 18" fill="none" xmlns="http://www.w3.org/2000/svg">
<path d="M16.2627 9C15.9044 8.99532 15.6012 9.2636 15.5622 9.6198C15.2315 13.5296 11.7939 16.431 7.8841 16.1004C3.9743 15.7697 1.07288 12.3321 1.40358 8.42227C1.73428 4.51247 5.17183 1.61104 9.08163 1.94171C10.7744 2.08488 12.3599 2.8299 13.5505 4.04164H11.3391C10.9479 4.04164 10.6308 4.35877 10.6308 4.74997C10.6308 5.14117 10.9479 5.45829 11.3391 5.45829H14.2737C15 5.45789 15.5887 4.8692 15.5891 4.14291V1.20832C15.5891 0.817123 15.272 0.5 14.8808 0.5C14.4896 0.5 14.1724 0.817123 14.1724 1.20832V2.68025C10.6763 -0.443799 5.30959 -0.142182 2.18554 3.35394C-0.938504 6.85006 -0.636887 12.2168 2.85924 15.3408C6.35536 18.4648 11.722 18.1632 14.8461 14.6671C16.0605 13.3081 16.8053 11.5943 16.9703 9.77914C17.0067 9.38688 16.7182 9.03941 16.326 9.00302C16.3049 9.0011 16.2839 9.00007 16.2627 9Z" fill="#CCCFD2"/>
</svg>
