<svg width="23" height="34" viewBox="0 0 23 34" fill="none" xmlns="http://www.w3.org/2000/svg">
<path d="M18.8714 16.2764L11.4702 20.7178L4.06907 16.2764C3.90853 16.1801 3.71631 16.1515 3.53469 16.1969C3.35306 16.2423 3.19692 16.358 3.1006 16.5185C3.00428 16.679 2.97567 16.8713 3.02108 17.0529C3.06648 17.2345 3.18218 17.3906 3.34271 17.487L11.1074 22.1458C11.2172 22.2117 11.3429 22.2466 11.471 22.2466C11.599 22.2466 11.7247 22.2117 11.8345 22.1458L19.5992 17.487C19.7597 17.3906 19.8754 17.2345 19.9208 17.0529C19.9662 16.8713 19.9376 16.679 19.8413 16.5185C19.745 16.358 19.5888 16.2423 19.4072 16.1969C19.2256 16.1515 19.0334 16.1801 18.8728 16.2764H18.8714Z" fill="#CCCFD2"/>
<path d="M18.8714 19.501L11.4702 23.9417L4.06906 19.501C3.98958 19.4533 3.90147 19.4217 3.80978 19.4081C3.71809 19.3944 3.62462 19.399 3.53469 19.4215C3.44475 19.444 3.36013 19.4839 3.28565 19.5391C3.21117 19.5943 3.14829 19.6636 3.10059 19.7431C3.0529 19.8226 3.02133 19.9107 3.00769 20.0024C2.99404 20.0941 2.99859 20.1876 3.02108 20.2775C3.06648 20.4591 3.18218 20.6153 3.34271 20.7116L11.1074 25.3704C11.2172 25.4364 11.3429 25.4712 11.4709 25.4712C11.599 25.4712 11.7247 25.4364 11.8345 25.3704L19.5992 20.7116C19.7597 20.6153 19.8754 20.4591 19.9208 20.2775C19.9662 20.0959 19.9376 19.9036 19.8413 19.7431C19.745 19.5826 19.5888 19.4669 19.4072 19.4215C19.2256 19.3761 19.0334 19.4047 18.8728 19.501H18.8714Z" fill="#CCCFD2"/>
<path d="M3.34213 14.4279L10.3897 18.6569C10.716 18.8532 11.0896 18.9569 11.4704 18.9569C11.8512 18.9569 12.2248 18.8532 12.5511 18.6569L19.5986 14.4279C19.703 14.3652 19.7893 14.2765 19.8493 14.1705C19.9092 14.0645 19.9407 13.9448 19.9407 13.823C19.9407 13.7012 19.9092 13.5815 19.8493 13.4755C19.7893 13.3695 19.703 13.2808 19.5986 13.2181L12.5511 8.98911C12.2247 8.79304 11.8511 8.68945 11.4704 8.68945C11.0896 8.68945 10.716 8.79304 10.3897 8.98911L3.34213 13.2181C3.23776 13.2808 3.15141 13.3695 3.09146 13.4755C3.03151 13.5815 3 13.7012 3 13.823C3 13.9448 3.03151 14.0645 3.09146 14.1705C3.15141 14.2765 3.23776 14.3652 3.34213 14.4279V14.4279Z" fill="#CCCFD2"/>
</svg>
