<svg width="16" height="18" viewBox="0 0 16 18" fill="none" xmlns="http://www.w3.org/2000/svg">
<path d="M0.608562 13.7246C1.19446 14.7415 2.4938 15.0909 3.51068 14.5049C3.51138 14.5046 3.51204 14.5042 3.51274 14.5038L3.82794 14.3217C4.42294 14.8308 5.10685 15.2256 5.84526 15.4862V15.8496C5.84526 17.0232 6.79666 17.9746 7.97026 17.9746C9.14386 17.9746 10.0953 17.0232 10.0953 15.8496V15.4862C10.8338 15.2252 11.5177 14.8299 12.1126 14.3203L12.4292 14.5031C13.4463 15.0899 14.7466 14.741 15.3334 13.7239C15.9202 12.7068 15.5714 11.4065 14.5542 10.8197L14.2397 10.6384C14.3813 9.86803 14.3813 9.07833 14.2397 8.30795L14.5542 8.12663C15.5713 7.53983 15.9202 6.2396 15.3334 5.22245C14.7466 4.20534 13.4464 3.85647 12.4292 4.44327L12.114 4.62533C11.5184 4.11689 10.834 3.72283 10.0953 3.46298V3.09961C10.0953 1.92601 9.14386 0.974609 7.97026 0.974609C6.79666 0.974609 5.84526 1.92601 5.84526 3.09961V3.46298C5.10676 3.72406 4.4228 4.11931 3.82794 4.62891L3.51131 4.44546C2.49417 3.85863 1.19393 4.2075 0.607135 5.22461C0.020336 6.24172 0.369168 7.54199 1.38631 8.12879L1.70081 8.31011C1.55923 9.08045 1.55923 9.87016 1.70081 10.6405L1.38631 10.8219C0.37199 11.4102 0.0242871 12.7079 0.608562 13.7246ZM7.97026 6.64129C9.53506 6.64129 10.8036 7.90981 10.8036 9.47461C10.8036 11.0394 9.53506 12.3079 7.97026 12.3079C6.40546 12.3079 5.13694 11.0394 5.13694 9.47461C5.13694 7.90981 6.40546 6.64129 7.97026 6.64129Z" fill="#CCCFD2"/>
</svg>
