<svg width="17" height="24" viewBox="0 0 17 24" fill="none" xmlns="http://www.w3.org/2000/svg">
<path d="M16.4831 3.98659C16.2747 3.77602 16.0103 3.62978 15.7212 3.56533C15.4321 3.50087 15.1305 3.52092 14.8525 3.62306L14.7 3.67741C11.2857 4.78794 8.17731 6.67917 5.62165 9.20094C4.98027 9.85927 4.39671 10.5715 3.87741 11.3299C2.88918 12.7416 2.70141 14.2868 3.91553 15.5016L3.94306 15.5285L2.32447 17.1471C2.19214 17.2794 2.1178 17.4589 2.1178 17.6461C2.1178 17.8333 2.19214 18.0128 2.32447 18.1452C2.45684 18.2775 2.63636 18.3519 2.82353 18.3519C3.0107 18.3519 3.19022 18.2775 3.32259 18.1452L4.94118 16.5266L4.968 16.5541C6.18282 17.7682 7.73153 17.5791 9.13977 16.5922C9.89811 16.0729 10.6104 15.4894 11.2687 14.848C13.7906 12.2921 15.6818 9.1835 16.7922 5.76894L16.8466 5.61647C16.9488 5.33856 16.9688 5.03711 16.9044 4.74811C16.8399 4.4591 16.6937 4.19475 16.4831 3.98659V3.98659ZM7.76471 13.4108C7.6251 13.4108 7.48862 13.3694 7.37254 13.2919C7.25646 13.2143 7.16598 13.1041 7.11256 12.9751C7.05913 12.8461 7.04515 12.7042 7.07239 12.5672C7.09962 12.4303 7.16685 12.3045 7.26557 12.2058C7.36429 12.1071 7.49007 12.0399 7.627 12.0126C7.76392 11.9854 7.90585 11.9994 8.03484 12.0528C8.16382 12.1062 8.27406 12.1967 8.35163 12.3128C8.42919 12.4289 8.47059 12.5653 8.47059 12.7049C8.47059 12.8922 8.39622 13.0717 8.26384 13.2041C8.13146 13.3365 7.95192 13.4108 7.76471 13.4108ZM9.88235 11.2932C9.74274 11.2932 9.60627 11.2518 9.49019 11.1742C9.37411 11.0967 9.28363 10.9864 9.2302 10.8574C9.17678 10.7284 9.1628 10.5865 9.19004 10.4496C9.21727 10.3127 9.2845 10.1869 9.38322 10.0882C9.48194 9.98944 9.60772 9.92221 9.74464 9.89498C9.88157 9.86774 10.0235 9.88172 10.1525 9.93515C10.2815 9.98857 10.3917 10.079 10.4693 10.1951C10.5468 10.3112 10.5882 10.4477 10.5882 10.5873C10.5882 10.7745 10.5139 10.9541 10.3815 11.0864C10.2491 11.2188 10.0696 11.2932 9.88235 11.2932ZM12 9.17553C11.8604 9.17553 11.7239 9.13413 11.6078 9.05657C11.4918 8.97901 11.4013 8.86876 11.3479 8.73978C11.2944 8.6108 11.2804 8.46887 11.3077 8.33194C11.3349 8.19501 11.4021 8.06923 11.5009 7.97052C11.5996 7.8718 11.7254 7.80457 11.8623 7.77733C11.9992 7.75009 12.1411 7.76407 12.2701 7.8175C12.3991 7.87093 12.5094 7.9614 12.5869 8.07748C12.6645 8.19356 12.7059 8.33004 12.7059 8.46965C12.7059 8.65686 12.6315 8.8364 12.4991 8.96878C12.3668 9.10116 12.1872 9.17553 12 9.17553ZM1.668 12.7318C1.44899 12.7319 1.2321 12.6888 1.02974 12.6051C0.827371 12.5213 0.643486 12.3985 0.488589 12.2437C0.333691 12.0888 0.210816 11.905 0.126983 11.7027C0.0431492 11.5004 -1.96281e-08 11.2835 0 11.0645C0.00170639 10.6296 0.169649 10.2119 0.469412 9.89694C1.67531 8.65731 3.30271 7.91566 5.02941 7.81883C4.89459 7.9473 4.75694 8.06941 4.62353 8.20283C3.92447 8.91835 3.28802 9.69248 2.72118 10.5167C2.24449 11.1771 1.91255 11.9307 1.74706 12.7282L1.668 12.7318ZM7.76471 18.7226C8.56231 18.5574 9.31597 18.2254 9.97624 17.7485C10.8018 17.182 11.5771 16.5455 12.2936 15.8461C12.4278 15.7127 12.5492 15.5751 12.6784 15.4402C12.5809 17.1669 11.8391 18.7942 10.5995 20.0002C10.2848 20.3 9.86733 20.468 9.43271 20.4696C8.99033 20.4696 8.56606 20.2939 8.25325 19.9811C7.94044 19.6683 7.76471 19.244 7.76471 18.8016V18.7226Z" fill="#CCCFD2"/>
</svg>
