<svg width="24" height="25" viewBox="0 0 24 25" fill="none" xmlns="http://www.w3.org/2000/svg">
<circle r="0.416667" transform="matrix(1 0 0 -1 11.5833 12.2083)" fill="#EBF6FF"/>
<path d="M21.4592 3.16601C21.2132 2.91742 20.901 2.74478 20.5597 2.66869C20.2184 2.5926 19.8624 2.61626 19.5342 2.73685L19.3542 2.80101C15.3234 4.11206 11.6538 6.34476 8.63667 9.32185C7.87949 10.099 7.19056 10.9399 6.5775 11.8352C5.41083 13.5018 5.18917 15.326 6.6225 16.7602L6.655 16.7918L4.74417 18.7027C4.58794 18.859 4.50018 19.0709 4.50018 19.2918C4.50018 19.5128 4.58794 19.7247 4.74417 19.881C4.90044 20.0372 5.11236 20.125 5.33333 20.125C5.5543 20.125 5.76623 20.0372 5.9225 19.881L7.83333 17.9702L7.865 18.0027C9.29917 19.436 11.1275 19.2127 12.79 18.0477C13.6853 17.4346 14.5261 16.7457 15.3033 15.9885C18.2805 12.9712 20.5132 9.30125 21.8242 5.27018L21.8883 5.09018C22.009 4.76208 22.0326 4.40621 21.9565 4.06502C21.8804 3.72384 21.7078 3.41176 21.4592 3.16601V3.16601ZM11.1667 14.2918C11.0018 14.2918 10.8407 14.243 10.7037 14.1514C10.5667 14.0598 10.4598 13.9297 10.3968 13.7774C10.3337 13.6251 10.3172 13.4576 10.3493 13.2959C10.3815 13.1343 10.4609 12.9858 10.5774 12.8693C10.694 12.7527 10.8424 12.6733 11.0041 12.6412C11.1657 12.609 11.3333 12.6255 11.4856 12.6886C11.6378 12.7517 11.768 12.8585 11.8596 12.9955C11.9511 13.1326 12 13.2937 12 13.4585C12 13.6795 11.9122 13.8915 11.7559 14.0478C11.5996 14.204 11.3877 14.2918 11.1667 14.2918ZM13.6667 11.7918C13.5019 11.7918 13.3407 11.743 13.2037 11.6514C13.0667 11.5598 12.9598 11.4297 12.8968 11.2774C12.8337 11.1251 12.8172 10.9576 12.8493 10.7959C12.8815 10.6343 12.9609 10.4858 13.0774 10.3693C13.194 10.2527 13.3424 10.1733 13.5041 10.1412C13.6657 10.109 13.8333 10.1255 13.9856 10.1886C14.1378 10.2517 14.268 10.3585 14.3596 10.4955C14.4511 10.6326 14.5 10.7937 14.5 10.9585C14.5 11.1795 14.4122 11.3915 14.2559 11.5478C14.0996 11.704 13.8877 11.7918 13.6667 11.7918ZM16.1667 9.29185C16.0019 9.29185 15.8407 9.24297 15.7037 9.1514C15.5667 9.05984 15.4598 8.92969 15.3968 8.77742C15.3337 8.62514 15.3172 8.45759 15.3493 8.29594C15.3815 8.13429 15.4609 7.9858 15.5774 7.86926C15.694 7.75271 15.8424 7.67335 16.0041 7.64119C16.1657 7.60904 16.3333 7.62554 16.4856 7.68861C16.6378 7.75169 16.768 7.8585 16.8596 7.99554C16.9511 8.13258 17 8.2937 17 8.45851C17 8.67953 16.9122 8.89149 16.7559 9.04777C16.5996 9.20405 16.3877 9.29185 16.1667 9.29185ZM3.96917 13.4902C3.71061 13.4903 3.45457 13.4395 3.21566 13.3406C2.97676 13.2417 2.75967 13.0967 2.57681 12.914C2.39394 12.7312 2.24888 12.5142 2.14991 12.2753C2.05094 12.0364 2 11.7804 2 11.5218C2.00201 11.0085 2.20028 10.5154 2.55417 10.1435C3.97779 8.68006 5.89903 7.8045 7.9375 7.69018C7.77833 7.84185 7.61583 7.98601 7.45833 8.14351C6.63305 8.98823 5.88169 9.90213 5.2125 10.8752C4.64974 11.6549 4.25787 12.5445 4.0625 13.486L3.96917 13.4902ZM11.1667 20.5627C12.1083 20.3677 12.998 19.9758 13.7775 19.4127C14.7521 18.7439 15.6675 17.9925 16.5133 17.1668C16.6717 17.0093 16.815 16.8468 16.9675 16.6877C16.8525 18.7261 15.9767 20.6472 14.5133 22.071C14.1418 22.4249 13.6489 22.6232 13.1358 22.6252C12.6136 22.6252 12.1127 22.4177 11.7434 22.0484C11.3741 21.6791 11.1667 21.1783 11.1667 20.656V20.5627Z" fill="#CCCFD2"/>
</svg>
