<svg width="18" height="18" viewBox="0 0 18 18" fill="none" xmlns="http://www.w3.org/2000/svg">
<g clip-path="url(#clip0_179791_264946)">
<path d="M9 0.5C7.31886 0.5 5.67547 0.998516 4.27766 1.93251C2.87984 2.8665 1.79037 4.19402 1.14703 5.74719C0.503683 7.30036 0.335355 9.00943 0.663329 10.6583C0.991303 12.3071 1.80085 13.8217 2.9896 15.0104C4.17834 16.1992 5.6929 17.0087 7.34174 17.3367C8.99057 17.6646 10.6996 17.4963 12.2528 16.853C13.806 16.2096 15.1335 15.1202 16.0675 13.7223C17.0015 12.3245 17.5 10.6811 17.5 9C17.4976 6.74641 16.6013 4.58582 15.0077 2.99228C13.4142 1.39875 11.2536 0.502437 9 0.5V0.5ZM9.70834 8.91429C9.70841 9.03436 9.67796 9.15248 9.61985 9.25755C9.56174 9.36263 9.47787 9.4512 9.37613 9.51496L6.65613 11.215C6.57706 11.2644 6.48904 11.2977 6.39709 11.3131C6.30514 11.3284 6.21106 11.3256 6.12023 11.3046C6.02939 11.2836 5.94358 11.2449 5.86769 11.1908C5.7918 11.1366 5.72731 11.0681 5.67792 10.989C5.62853 10.9099 5.59519 10.8219 5.57981 10.73C5.56444 10.638 5.56732 10.5439 5.58831 10.4531C5.60929 10.3623 5.64796 10.2765 5.7021 10.2006C5.75625 10.1247 5.82481 10.0602 5.90388 10.0108L8.29167 8.52188V5.45833C8.29167 5.27047 8.3663 5.0903 8.49914 4.95747C8.63197 4.82463 8.81214 4.75 9 4.75C9.18787 4.75 9.36803 4.82463 9.50087 4.95747C9.63371 5.0903 9.70834 5.27047 9.70834 5.45833V8.91429Z" fill="#E0E3E5"/>
</g>
<defs>
<clipPath id="clip0_179791_264946">
<rect width="17" height="17" fill="white" transform="translate(0.5 0.5)"/>
</clipPath>
</defs>
</svg>
