<svg width="18" height="18" viewBox="0 0 18 18" fill="none" xmlns="http://www.w3.org/2000/svg">
<g clip-path="url(#clip0_179791_264923)">
<path d="M0.5 13.9585C0.501125 14.8975 0.874625 15.7976 1.53857 16.4616C2.20252 17.1255 3.1027 17.499 4.04167 17.5002H13.9583C14.8973 17.499 15.7975 17.1255 16.4614 16.4616C17.1254 15.7976 17.4989 14.8975 17.5 13.9585V7.5835H0.5V13.9585ZM12.5417 10.771C12.7518 10.771 12.9572 10.8333 13.132 10.9501C13.3067 11.0668 13.4429 11.2327 13.5233 11.4269C13.6037 11.621 13.6247 11.8347 13.5838 12.0408C13.5428 12.2469 13.4416 12.4362 13.293 12.5848C13.1444 12.7334 12.9551 12.8346 12.7489 12.8756C12.5428 12.9166 12.3292 12.8955 12.1351 12.8151C11.9409 12.7347 11.775 12.5985 11.6582 12.4238C11.5415 12.2491 11.4792 12.0436 11.4792 11.8335C11.4792 11.5517 11.5911 11.2815 11.7904 11.0822C11.9896 10.8829 12.2599 10.771 12.5417 10.771ZM9 10.771C9.21014 10.771 9.41557 10.8333 9.59029 10.9501C9.76502 11.0668 9.9012 11.2327 9.98162 11.4269C10.062 11.621 10.0831 11.8347 10.0421 12.0408C10.0011 12.2469 9.89989 12.4362 9.7513 12.5848C9.60271 12.7334 9.41339 12.8346 9.20728 12.8756C9.00118 12.9166 8.78755 12.8955 8.5934 12.8151C8.39925 12.7347 8.23331 12.5985 8.11656 12.4238C7.99981 12.2491 7.9375 12.0436 7.9375 11.8335C7.9375 11.5517 8.04944 11.2815 8.2487 11.0822C8.44796 10.8829 8.71821 10.771 9 10.771ZM5.45833 10.771C5.66848 10.771 5.8739 10.8333 6.04863 10.9501C6.22335 11.0668 6.35954 11.2327 6.43996 11.4269C6.52037 11.621 6.54141 11.8347 6.50042 12.0408C6.45942 12.2469 6.35823 12.4362 6.20963 12.5848C6.06104 12.7334 5.87172 12.8346 5.66562 12.8756C5.45951 12.9166 5.24588 12.8955 5.05173 12.8151C4.85759 12.7347 4.69165 12.5985 4.5749 12.4238C4.45815 12.2491 4.39583 12.0436 4.39583 11.8335C4.39583 11.5517 4.50777 11.2815 4.70703 11.0822C4.90629 10.8829 5.17654 10.771 5.45833 10.771V10.771Z" fill="#E0E3E5"/>
<path d="M13.9583 1.91667H13.25V1.20833C13.25 1.02047 13.1754 0.840304 13.0425 0.707466C12.9097 0.574628 12.7295 0.5 12.5417 0.5C12.3538 0.5 12.1736 0.574628 12.0408 0.707466C11.908 0.840304 11.8333 1.02047 11.8333 1.20833V1.91667H6.16667V1.20833C6.16667 1.02047 6.09204 0.840304 5.9592 0.707466C5.82636 0.574628 5.64619 0.5 5.45833 0.5C5.27047 0.5 5.0903 0.574628 4.95747 0.707466C4.82463 0.840304 4.75 1.02047 4.75 1.20833V1.91667H4.04167C3.1027 1.91779 2.20252 2.29129 1.53857 2.95524C0.874625 3.61919 0.501125 4.51937 0.5 5.45833L0.5 6.16667H17.5V5.45833C17.4989 4.51937 17.1254 3.61919 16.4614 2.95524C15.7975 2.29129 14.8973 1.91779 13.9583 1.91667V1.91667Z" fill="#E0E3E5"/>
</g>
<defs>
<clipPath id="clip0_179791_264923">
<rect width="17" height="17" fill="white" transform="translate(0.5 0.5)"/>
</clipPath>
</defs>
</svg>
