<svg width="21" height="20" viewBox="0 0 21 20" fill="none" xmlns="http://www.w3.org/2000/svg">
<path d="M3.28613 6L6.91236 9.62623C7.30288 10.0168 7.93605 10.0168 8.32657 9.62623L10.579 7.37377C10.9696 6.98325 11.6027 6.98325 11.9932 7.37377L17.6195 13" stroke="#CCCFD2" stroke-width="1.5" stroke-linecap="round"/>
<path d="M1.92857 17.9286V17.9291H20.3571C20.4747 17.9291 20.5709 18.0253 20.5709 18.1429V19.6429C20.5709 19.7604 20.4747 19.8566 20.3571 19.8566H0.214286C0.0967368 19.8566 0.000558036 19.7604 0.000558036 19.6429V1.21429C0.000558036 1.09674 0.0967368 1.00056 0.214286 1.00056H1.71429C1.83183 1.00056 1.92801 1.09674 1.92801 1.21429V17.9286H1.92857Z" stroke="#CCCFD2" stroke-width="0.00111607"/>
<path d="M3.54521 17.0819H19.308C19.3634 17.0819 19.4166 17.1039 19.4558 17.1431C19.495 17.1823 19.517 17.2355 19.517 17.291C19.517 17.3464 19.495 17.3996 19.4558 17.4388C19.4166 17.478 19.3634 17.5 19.308 17.5H3.54581C2.73831 17.499 1.96416 17.1778 1.39317 16.6068C0.822242 16.0359 0.501043 15.2619 0.5 14.4545V0.709042C0.5 0.653601 0.522024 0.60043 0.561227 0.561227C0.60043 0.522024 0.653601 0.5 0.709042 0.5C0.764484 0.5 0.817655 0.522024 0.856858 0.561227C0.896061 0.60043 0.918085 0.653601 0.918085 0.709042V14.4548C0.918085 15.1515 1.19487 15.8198 1.68755 16.3124C2.18023 16.8051 2.84845 17.0819 3.54521 17.0819Z" fill="#CCCFD2" stroke="#CCCFD2"/>
<path d="M3.28613 14L6.91236 10.3738C7.30288 9.98325 7.93605 9.98325 8.32657 10.3738L10.579 12.6262C10.9696 13.0168 11.6027 13.0168 11.9932 12.6262L14.4528 10.1667L17.6195 7" stroke="#CCCFD2" stroke-width="1.5" stroke-linecap="round"/>
</svg>
