<svg width="21" height="20" viewBox="0 0 21 20" fill="none" xmlns="http://www.w3.org/2000/svg">
<ellipse rx="0.416667" ry="0.357143" transform="matrix(1 0 0 -1 11.8334 6.07059)" fill="#EBF6FF"/>
<path d="M0.957594 14.49C1.72368 15.6457 3.42261 16.0427 4.75221 15.3768C4.75312 15.3764 4.75399 15.3759 4.7549 15.3755L5.16703 15.1686C5.94501 15.7471 6.83926 16.1958 7.80475 16.492V16.905C7.80475 18.2388 9.04873 19.32 10.5833 19.32C12.1178 19.32 13.3618 18.2388 13.3618 16.905V16.492C14.3274 16.1953 15.2217 15.7461 15.9995 15.167L16.4135 15.3747C17.7434 16.0416 19.4435 15.6451 20.2108 14.4892C20.978 13.3333 20.5219 11.8555 19.192 11.1887L18.7808 10.9826C18.9659 10.1071 18.9659 9.20964 18.7808 8.33413L19.192 8.12806C20.5219 7.46118 20.978 5.9835 20.2108 4.82755C19.4435 3.67163 17.7434 3.27516 16.4135 3.94203L16.0013 4.14893C15.2226 3.57111 14.3277 3.12327 13.3618 2.82797V2.415C13.3618 1.08124 12.1178 0 10.5833 0C9.04873 0 7.80475 1.08124 7.80475 2.415V2.82797C6.83913 3.12467 5.94484 3.57386 5.16703 4.15301L4.75303 3.94453C3.42308 3.27761 1.72299 3.67408 0.955728 4.83C0.188469 5.98592 0.644578 7.46363 1.97453 8.13051L2.38575 8.33658C2.20063 9.21206 2.20063 10.1095 2.38575 10.985L1.97453 11.1911C0.648269 11.8598 0.193635 13.3346 0.957594 14.49ZM10.5833 6.44001C12.6293 6.44001 14.2879 7.88165 14.2879 9.66C14.2879 11.4383 12.6293 12.88 10.5833 12.88C8.53723 12.88 6.87859 11.4383 6.87859 9.66C6.87859 7.88165 8.53723 6.44001 10.5833 6.44001Z" fill="#E0E3E5"/>
</svg>
