<svg width="20" height="20" viewBox="0 0 20 20" fill="none" xmlns="http://www.w3.org/2000/svg">
<path d="M19.0244 7.6422L15.7919 4.4097C15.4608 4.08997 14.9333 4.09915 14.6135 4.43021C14.3016 4.75313 14.3016 5.26513 14.6135 5.58806L17.846 8.82056C17.9421 8.91849 18.026 9.02763 18.096 9.14556C18.0835 9.14556 18.0735 9.13888 18.061 9.13888L4.99104 9.16556C4.5308 9.16556 4.15771 9.53864 4.15771 9.99888C4.15771 10.4591 4.5308 10.8322 4.99104 10.8322L18.056 10.8055C18.0794 10.8055 18.0985 10.7938 18.121 10.7922C18.0471 10.9332 17.9534 11.0628 17.8427 11.1772L14.6102 14.4097C14.2792 14.7294 14.27 15.257 14.5897 15.588C14.9094 15.9191 15.437 15.9283 15.768 15.6085C15.775 15.6018 15.7818 15.595 15.7885 15.588L19.021 12.3555C20.3223 11.0538 20.3223 8.94384 19.021 7.6422H19.0244Z" fill="#CCCFD2"/>
<path d="M5.83332 18.3333H4.16664C2.78594 18.3333 1.66664 17.214 1.66664 15.8333V4.16668C1.66664 2.78598 2.78594 1.66668 4.16664 1.66668H5.83332C6.29355 1.66668 6.66664 1.29359 6.66664 0.833359C6.66664 0.373125 6.29359 0 5.83332 0H4.16664C1.86664 0.00277344 0.00277344 1.86664 0 4.16668V15.8334C0.00277344 18.1334 1.86664 19.9973 4.16668 20H5.83336C6.29359 20 6.66668 19.6269 6.66668 19.1667C6.66668 18.7064 6.29359 18.3333 5.83332 18.3333Z" fill="#CCCFD2"/>
</svg>
