<svg width="48" height="48" viewBox="0 0 48 48" fill="none" xmlns="http://www.w3.org/2000/svg">
<rect width="48" height="48" rx="24" fill="#F9FAFA"/>
<path d="M19 32.7522C19.0003 32.4204 19.1339 32.1023 19.3716 31.8678L25.8503 25.4672C26.0464 25.2736 26.2019 25.0436 26.3081 24.7905C26.4142 24.5374 26.4688 24.2662 26.4688 23.9922C26.4688 23.7183 26.4142 23.447 26.3081 23.1939C26.2019 22.9409 26.0464 22.7109 25.8503 22.5172L19.38 16.1208C19.1493 15.8848 19.0216 15.5687 19.0245 15.2405C19.0274 14.9124 19.1606 14.5986 19.3954 14.3665C19.6303 14.1345 19.948 14.0029 20.2801 14C20.6122 13.9972 20.9322 14.1233 21.1711 14.3513L27.6414 20.7427C28.5114 21.6039 29 22.7709 29 23.9876C29 25.2044 28.5114 26.3714 27.6414 27.2326L21.1627 33.6332C20.9858 33.8081 20.7604 33.9272 20.515 33.9757C20.2696 34.0242 20.0152 33.9998 19.7838 33.9055C19.5525 33.8113 19.3545 33.6514 19.215 33.4462C19.0756 33.2409 19.0007 32.9994 19 32.7522V32.7522Z" fill="#1890FF"/>
</svg>
