<svg width="48" height="49" viewBox="0 0 48 49" fill="none" xmlns="http://www.w3.org/2000/svg">
<rect y="0.619141" width="48" height="48" rx="24" fill="#CCCFD2"/>
<path d="M19 33.3713C19.0003 33.0395 19.1339 32.7214 19.3716 32.487L25.8503 26.0864C26.0464 25.8927 26.2019 25.6627 26.3081 25.4097C26.4142 25.1566 26.4688 24.8853 26.4688 24.6114C26.4688 24.3374 26.4142 24.0662 26.3081 23.8131C26.2019 23.56 26.0464 23.33 25.8503 23.1364L19.38 16.7399C19.1493 16.5039 19.0216 16.1878 19.0245 15.8597C19.0274 15.5316 19.1606 15.2177 19.3954 14.9857C19.6303 14.7536 19.948 14.622 20.2801 14.6192C20.6122 14.6163 20.9322 14.7425 21.1711 14.9704L27.6414 21.3619C28.5114 22.223 29 23.3901 29 24.6068C29 25.8235 28.5114 26.9905 27.6414 27.8517L21.1627 34.2523C20.9858 34.4272 20.7604 34.5464 20.515 34.5949C20.2696 34.6433 20.0152 34.6189 19.7838 34.5246C19.5525 34.4304 19.3545 34.2706 19.215 34.0653C19.0756 33.86 19.0007 33.6186 19 33.3713V33.3713Z" fill="white"/>
<rect y="0.619141" width="48" height="48" rx="24" stroke="#E0E3E5"/>
</svg>
