<svg width="49" height="48" viewBox="0 0 49 48" fill="none" xmlns="http://www.w3.org/2000/svg">
<g clip-path="url(#clip0_2197_106164)">
<path d="M29.5 15.2478C29.4997 15.5796 29.3677 15.8977 29.1329 16.1322L22.7323 22.5328C22.5386 22.7264 22.3849 22.9564 22.2801 23.2095C22.1752 23.4626 22.1212 23.7338 22.1212 24.0078C22.1212 24.2817 22.1752 24.553 22.2801 24.8061C22.3849 25.0591 22.5386 25.2891 22.7323 25.4828L29.1246 31.8792C29.3525 32.1152 29.4787 32.4313 29.4758 32.7595C29.473 33.0876 29.3414 33.4014 29.1093 33.6335C28.8773 33.8655 28.5634 33.9971 28.2353 34C27.9072 34.0028 27.5911 33.8767 27.3551 33.6487L20.9628 27.2573C20.1033 26.3961 19.6206 25.2291 19.6206 24.0124C19.6206 22.7956 20.1033 21.6286 20.9628 20.7674L27.3634 14.3668C27.5382 14.1919 27.7608 14.0728 28.0033 14.0243C28.2457 13.9758 28.4971 14.0002 28.7256 14.0945C28.9542 14.1887 29.1497 14.3486 29.2875 14.5538C29.4254 14.7591 29.4993 15.0006 29.5 15.2478V15.2478Z" fill="white"/>
</g>
<defs>
<clipPath id="clip0_2197_106164">
<rect x="0.5" width="48" height="48" rx="24" fill="white"/>
</clipPath>
</defs>
</svg>
