<svg width="41" height="40" viewBox="0 0 41 40" fill="none" xmlns="http://www.w3.org/2000/svg">
<path d="M6.30469 4C6.30469 1.79086 8.09555 0 10.3047 0L22.2775 0L34.639 13.1902V37.5012H10.3047C8.09555 37.5012 6.30469 35.7104 6.30469 33.5012V4Z" fill="#E0E3E5"/>
<rect y="8.32812" width="21.6657" height="9.99956" rx="4" fill="#FF1818"/>
<path d="M7.74969 12.4359C7.74969 12.7618 7.66901 13.0609 7.50765 13.3334C7.34629 13.6005 7.09848 13.8168 6.76424 13.9824C6.42999 14.148 6.01507 14.2308 5.51946 14.2308H4.60317V16.2501H3.125V10.625H5.51946C6.00354 10.625 6.41271 10.7025 6.74695 10.8574C7.0812 11.0123 7.33188 11.226 7.499 11.4984C7.66613 11.7709 7.74969 12.0834 7.74969 12.4359ZM5.40709 13.1411C5.68947 13.1411 5.89981 13.0796 6.03812 12.9568C6.17643 12.8339 6.24558 12.6603 6.24558 12.4359C6.24558 12.2116 6.17643 12.038 6.03812 11.9151C5.89981 11.7922 5.68947 11.7308 5.40709 11.7308H4.60317V13.1411H5.40709Z" fill="white"/>
<path d="M10.7927 10.625C11.4324 10.625 11.9913 10.7425 12.4697 10.9776C12.948 11.2126 13.3168 11.5438 13.5761 11.9712C13.8412 12.3932 13.9738 12.882 13.9738 13.4375C13.9738 13.9878 13.8412 14.4766 13.5761 14.9039C13.3168 15.3313 12.9451 15.6625 12.461 15.8975C11.9827 16.1326 11.4266 16.2501 10.7927 16.2501H8.51923V10.625H10.7927ZM10.6976 15.0642C11.2566 15.0642 11.6917 14.9226 12.0029 14.6395C12.3141 14.3564 12.4697 13.9557 12.4697 13.4375C12.4697 12.9194 12.3141 12.5161 12.0029 12.2276C11.6917 11.9391 11.2566 11.7949 10.6976 11.7949H9.9974V15.0642H10.6976Z" fill="white"/>
<path d="M18.7503 10.625V11.7228H16.278V12.9087H18.1279V13.9744H16.278V16.2501H14.7998V10.625H18.7503Z" fill="white"/>
<path d="M40.4892 33.0162C40.3448 32.8717 40.1733 32.7571 39.9846 32.6789C39.7959 32.6007 39.5937 32.5604 39.3894 32.5604C39.1851 32.5604 38.9829 32.6007 38.7941 32.6789C38.6054 32.7571 38.434 32.8717 38.2896 33.0162L35.7614 35.5444V26.4298C35.7614 26.0175 35.5976 25.622 35.306 25.3304C35.0144 25.0388 34.6189 24.875 34.2066 24.875C33.7942 24.875 33.3987 25.0388 33.1071 25.3304C32.8155 25.622 32.6517 26.0175 32.6517 26.4298V35.5444L30.1235 33.0162C29.832 32.7245 29.4365 32.5606 29.0241 32.5605C28.6117 32.5604 28.2161 32.7241 27.9245 33.0157C27.6328 33.3072 27.4688 33.7027 27.4688 34.1151C27.4687 34.5275 27.6324 34.9231 27.9239 35.2147L31.6411 38.9319C31.978 39.2688 32.3779 39.5361 32.8181 39.7184C33.2583 39.9008 33.7301 39.9946 34.2066 39.9946C34.683 39.9946 35.1548 39.9008 35.595 39.7184C36.0352 39.5361 36.4352 39.2688 36.7721 38.9319L40.4892 35.2147C40.7807 34.9232 40.9444 34.5278 40.9444 34.1155C40.9444 33.7032 40.7807 33.3078 40.4892 33.0162Z" fill="#FF1818"/>
</svg>
