<svg width="42" height="40" viewBox="0 0 42 40" fill="none" xmlns="http://www.w3.org/2000/svg">
<path d="M6.74805 4C6.74805 1.79086 8.53891 0 10.748 0L22.7208 0L35.0823 13.1252V37.3164H10.748C8.53891 37.3164 6.74805 35.5255 6.74805 33.3164V4Z" fill="#D9D9D9"/>
<rect x="0.527344" y="8.33203" width="21.6657" height="9.99956" rx="4" fill="#8D949B"/>
<path d="M8.27703 12.4359C8.27703 12.7618 8.19635 13.0609 8.03499 13.3334C7.87363 13.6005 7.62583 13.8168 7.29158 13.9824C6.95734 14.148 6.54241 14.2308 6.04681 14.2308H5.13051V16.2501H3.65234V10.625H6.04681C6.53089 10.625 6.94005 10.7025 7.27429 10.8574C7.60854 11.0123 7.85922 11.226 8.02635 11.4984C8.19347 11.7709 8.27703 12.0834 8.27703 12.4359ZM5.93443 13.1411C6.21681 13.1411 6.42716 13.0796 6.56546 12.9568C6.70377 12.8339 6.77293 12.6603 6.77293 12.4359C6.77293 12.2116 6.70377 12.038 6.56546 11.9151C6.42716 11.7922 6.21681 11.7308 5.93443 11.7308H5.13051V13.1411H5.93443Z" fill="white"/>
<path d="M11.32 10.625C11.9597 10.625 12.5187 10.7425 12.997 10.9776C13.4753 11.2126 13.8441 11.5438 14.1035 11.9712C14.3686 12.3932 14.5011 12.882 14.5011 13.4375C14.5011 13.9878 14.3686 14.4766 14.1035 14.9039C13.8441 15.3313 13.4724 15.6625 12.9884 15.8975C12.51 16.1326 11.9539 16.2501 11.32 16.2501H9.04657V10.625H11.32ZM11.2249 15.0642C11.7839 15.0642 12.219 14.9226 12.5302 14.6395C12.8414 14.3564 12.997 13.9557 12.997 13.4375C12.997 12.9194 12.8414 12.5161 12.5302 12.2276C12.219 11.9391 11.7839 11.7949 11.2249 11.7949H10.5247V15.0642H11.2249Z" fill="white"/>
<path d="M19.2776 10.625V11.7228H16.8053V12.9087H18.6552V13.9744H16.8053V16.2501H15.3272V10.625H19.2776Z" fill="white"/>
<path d="M41.0165 33.0201C40.8721 32.8756 40.7007 32.761 40.512 32.6828C40.3233 32.6046 40.121 32.5643 39.9167 32.5643C39.7125 32.5643 39.5102 32.6046 39.3215 32.6828C39.1328 32.761 38.9613 32.8756 38.8169 33.0201L36.2888 35.5483V26.4338C36.2888 26.0214 36.1249 25.6259 35.8333 25.3343C35.5418 25.0427 35.1463 24.8789 34.7339 24.8789C34.3215 24.8789 33.9261 25.0427 33.6345 25.3343C33.3429 25.6259 33.1791 26.0214 33.1791 26.4338V35.5483L30.6509 33.0201C30.3593 32.7284 29.9638 32.5645 29.5514 32.5644C29.139 32.5643 28.7435 32.728 28.4518 33.0196C28.1601 33.3111 27.9962 33.7066 27.9961 34.119C27.996 34.5314 28.1597 34.927 28.4513 35.2187L32.1684 38.9358C32.5053 39.2727 32.9053 39.54 33.3455 39.7223C33.7856 39.9047 34.2574 39.9985 34.7339 39.9985C35.2104 39.9985 35.6822 39.9047 36.1224 39.7223C36.5626 39.54 36.9625 39.2727 37.2994 38.9358L41.0165 35.2187C41.308 34.9271 41.4718 34.5317 41.4718 34.1194C41.4718 33.7071 41.308 33.3117 41.0165 33.0201V33.0201Z" fill="#8D949B"/>
</svg>
