<svg width="17" height="18" viewBox="0 0 17 18" fill="none" xmlns="http://www.w3.org/2000/svg">
<path d="M16.2917 8.29168H9.20832V1.20832C9.20832 0.817123 8.8912 0.5 8.5 0.5C8.1088 0.5 7.79168 0.817123 7.79168 1.20832V8.29164H0.708322C0.317123 8.29168 0 8.6088 0 9C0 9.3912 0.317123 9.70832 0.708322 9.70832H7.79164V16.7916C7.79164 17.1828 8.10877 17.5 8.49997 17.5C8.89116 17.5 9.20829 17.1828 9.20829 16.7916V9.70832H16.2916C16.6828 9.70832 16.9999 9.3912 16.9999 9C17 8.6088 16.6829 8.29168 16.2917 8.29168Z" fill="#CCCFD2"/>
</svg>
