<?xml version="1.0" encoding="utf-8"?>
<!-- Generator: Adobe Illustrator 26.2.1, SVG Export Plug-In . SVG Version: 6.00 Build 0)  -->
<svg version="1.1" id="Capa_1" xmlns="http://www.w3.org/2000/svg" xmlns:xlink="http://www.w3.org/1999/xlink" x="0px" y="0px"
	 viewBox="0 0 141.7 141.7" style="enable-background:new 0 0 141.7 141.7;" xml:space="preserve">
<style type="text/css">
	.st0{fill:#20145F;}
	
		.st1{clip-path:url(#SVGID_00000115485594989715241830000011686254478453929356_);fill:url(#SVGID_00000069390476205897024830000011673450813566939035_);}
</style>
<g>
	<polygon class="st0" points="70.9,17.6 57.5,31 60.1,33.6 70.9,22.8 118.9,70.9 108.1,81.6 110.7,84.2 124.1,70.9 	"/>
	<g>
		<defs>
			<path id="SVGID_1_" d="M106.7,32.9c0,0.1-2.8,6.9-6.2,14.3c-3.5,7.5-5.9,11.6-7.3,13.7c-1.6-2-3.5-4.9-4.8-6.9
				c-5-7.6-9-13.6-14.9-13.6c-6.2,0-8.3,7.1-9.3,10.5c-1.2,4-2.2,9.1-3.3,14.2c-0.7,3.5-1.7,8.4-2.7,12.2c-0.3-0.5-0.5-1-0.8-1.3
				c-2.3-4.2-4.7-8.5-9.6-8.5c-4.4,0-7.2,4-9.7,8.1c-1.8,2.9-3.9,6.9-6.4,12c-4.1,8.4-7.7,16.6-7.8,17c-1.3,3,0.1,6.6,3.1,7.9
				c0.8,0.3,1.6,0.5,2.4,0.5c2.3,0,4.5-1.4,5.5-3.6c4.1-9.4,9.2-20.1,12.7-26.1c2.6,4.5,6.1,9.9,12,9.9c6.4,0,8.5-7.3,9.6-10.8
				c1.2-4.1,2.3-9.5,3.4-14.7c0.7-3.5,1.7-8,2.6-11.5c1.1,1.6,2.3,3.3,3.1,4.6c5.2,7.8,9.2,13.9,15.2,13.9c4.5,0,7.6-3.8,10.2-8
				c1.9-3,4.1-7,6.5-12.1c4.1-8.4,7.4-16.7,7.5-17.1c1.2-3.1-0.3-6.6-3.3-7.8c-0.7-0.3-1.5-0.4-2.2-0.4
				C109.9,29.1,107.7,30.5,106.7,32.9"/>
		</defs>
		<clipPath id="SVGID_00000067196831800412035350000006077373771788072074_">
			<use xlink:href="#SVGID_1_"  style="overflow:visible;"/>
		</clipPath>
		
			<linearGradient id="SVGID_00000178193666737023997660000011552293545365468080_" gradientUnits="userSpaceOnUse" x1="-25.4967" y1="584.5708" x2="-23.9681" y2="584.5708" gradientTransform="matrix(62.0745 0 0 -62.0745 1606.1155 36357.8125)">
			<stop  offset="0" style="stop-color:#1D9ADD"/>
			<stop  offset="1" style="stop-color:#EBE717"/>
		</linearGradient>
		
			<rect x="22.6" y="29.1" style="clip-path:url(#SVGID_00000067196831800412035350000006077373771788072074_);fill:url(#SVGID_00000178193666737023997660000011552293545365468080_);" width="96.5" height="83.6"/>
	</g>
	<polygon class="st0" points="17.6,70.9 70.9,124.1 84.2,110.7 81.6,108.1 70.9,118.9 22.8,70.9 33.6,60.1 31,57.5 	"/>
</g>
</svg>
