<?xml version="1.0" encoding="utf-8"?>
<!-- Generator: Adobe Illustrator 26.2.1, SVG Export Plug-In . SVG Version: 6.00 Build 0)  -->
<svg version="1.1" id="Capa_1" xmlns="http://www.w3.org/2000/svg" xmlns:xlink="http://www.w3.org/1999/xlink" x="0px" y="0px"
	 viewBox="0 0 272 75.4" style="enable-background:new 0 0 272 75.4;" xml:space="preserve">
<style type="text/css">
	.st0{fill:#20145F;}
	
		.st1{clip-path:url(#SVGID_00000119100542452274888830000013118558970673659522_);fill:url(#SVGID_00000052106226214076567260000004443833485556265387_);}
</style>
<g>
	<g>
		<path class="st0" d="M89.1,40.7v-0.5c0-2.7-2.4-3.5-4.7-3.7c-2-0.2-3.5-0.6-3.5-2.6v-0.2c0-1.4,0.9-2.5,3.1-2.5
			c2.5,0,3.3,1.7,3.3,3.3v0.1h1.6v-0.4c0-2.3-1.5-4.5-4.8-4.5c-3.2,0-4.7,1.7-4.7,4V34c0,2.8,2.3,3.7,4.8,3.9c2,0.2,3.4,0.8,3.4,2.5
			v0.2c0,1.6-1.1,2.7-3.3,2.7c-2.4,0-3.6-1.7-3.6-3.3v-0.1H79v0.4c0,2.5,1.9,4.5,5.2,4.5C87.4,44.7,89.1,43.1,89.1,40.7 M108.7,44.4
			h1.6V29.9h-1.6v6.9H102v-6.9h-1.6v14.5h1.6v-6.2h6.7V44.4z M131.5,44.4h1.7L128,29.9h-1.6l-5.2,14.5h1.6l4.4-12.7L131.5,44.4z
			 M152.4,35.2c0,2.2-1.1,3.4-3,3.4h-3.7v-7.1h3.7c2,0,3,1.2,3,3.3V35.2z M153.9,35.5v-1c0-2.8-1.8-4.5-4.6-4.5h-5.2v14.5h1.6V40
			h3.7C152.1,40,153.9,38.2,153.9,35.5 M165.2,44.4h8.6V43h-7v-4.9h5.7v-1.4h-5.7v-5.3h6.8v-1.5h-8.4V44.4z M184.9,44.4h8.6V43h-7.1
			V29.9h-1.6V44.4z M204.4,44.4h8.6V43h-7v-4.9h5.7v-1.4h-5.7v-5.3h6.8v-1.5h-8.4V44.4z M229.2,31.4h4.2v-1.4h-10.1v1.4h4.2v13.1
			h1.6V31.4z M245.6,33.8v-0.2c0-1.4,0.9-2.5,3.1-2.5c2.5,0,3.3,1.7,3.3,3.3v0.1h1.6v-0.4c0-2.3-1.5-4.5-4.8-4.5
			c-3.2,0-4.7,1.7-4.7,4V34c0,2.8,2.3,3.7,4.8,3.9c2,0.2,3.4,0.8,3.4,2.5v0.2c0,1.6-1.1,2.7-3.3,2.7c-2.4,0-3.6-1.7-3.6-3.3v-0.1
			h-1.6v0.4c0,2.5,1.9,4.5,5.2,4.5c3.3,0,4.9-1.6,4.9-4v-0.5c0-2.7-2.4-3.5-4.7-3.7C247.2,36.3,245.6,35.8,245.6,33.8"/>
	</g>
	<g>
		<polygon class="st0" points="40.7,15.1 35,20.8 36.1,21.9 40.7,17.3 61,37.7 56.5,42.2 57.6,43.3 63.2,37.7 		"/>
		<g>
			<defs>
				<path id="SVGID_1_" d="M55.9,21.6c0,0-1.2,2.9-2.6,6c-1.5,3.2-2.5,4.9-3.1,5.8c-0.7-0.8-1.5-2.1-2-2.9c-2.1-3.2-3.8-5.8-6.3-5.8
					c-2.6,0-3.5,3-3.9,4.4c-0.5,1.7-1,3.9-1.4,6c-0.3,1.5-0.7,3.6-1.2,5.1c-0.1-0.2-0.2-0.4-0.3-0.6c-1-1.8-2-3.6-4.1-3.6
					c-1.8,0-3,1.7-4.1,3.4c-0.8,1.2-1.7,2.9-2.7,5.1c-1.7,3.6-3.3,7-3.3,7.2c-0.6,1.3,0,2.8,1.3,3.3c0.3,0.1,0.7,0.2,1,0.2
					c1,0,1.9-0.6,2.3-1.5c1.7-4,3.9-8.5,5.4-11.1c1.1,1.9,2.6,4.2,5.1,4.2c2.7,0,3.6-3.1,4.1-4.6c0.5-1.7,1-4,1.4-6.2
					c0.3-1.5,0.7-3.4,1.1-4.9c0.5,0.7,1,1.4,1.3,2c2.2,3.3,3.9,5.9,6.4,5.9c1.9,0,3.2-1.6,4.3-3.4c0.8-1.3,1.7-3,2.8-5.1
					c1.7-3.6,3.1-7.1,3.2-7.2c0.5-1.3-0.1-2.8-1.4-3.3C58.9,20,58.6,20,58.2,20C57.2,20,56.3,20.6,55.9,21.6"/>
			</defs>
			<clipPath id="SVGID_00000140721854658638332500000014112296361089815199_">
				<use xlink:href="#SVGID_1_"  style="overflow:visible;"/>
			</clipPath>
			
				<linearGradient id="SVGID_00000093863591401843423350000005906366926576115633_" gradientUnits="userSpaceOnUse" x1="-277.7133" y1="783.2468" x2="-277.0659" y2="783.2468" gradientTransform="matrix(62.0745 0 0 -62.0745 17259.5117 48657.3438)">
				<stop  offset="0" style="stop-color:#1D9ADD"/>
				<stop  offset="1" style="stop-color:#EBE717"/>
			</linearGradient>
			
				<rect x="20.2" y="20" style="clip-path:url(#SVGID_00000140721854658638332500000014112296361089815199_);fill:url(#SVGID_00000093863591401843423350000005906366926576115633_);" width="40.9" height="35.4"/>
		</g>
		<polygon class="st0" points="18.1,37.7 40.7,60.2 46.4,54.6 45.2,53.5 40.7,58 20.3,37.7 24.9,33.1 23.8,32 		"/>
	</g>
</g>
</svg>
