<svg width="17" height="18" viewBox="0 0 17 18" fill="none" xmlns="http://www.w3.org/2000/svg">
<path d="M0.000331787 8.99003C-0.00689761 10.8065 1.45978 12.2848 3.27624 12.2921C4.1128 12.2954 4.91921 11.9798 5.53129 11.4096L10.4326 13.6225C10.3985 13.8058 10.3799 13.9915 10.3767 14.1779C10.3709 16.0069 11.8489 17.4942 13.6779 17.5C15.5068 17.5058 16.9942 16.0278 17 14.1988C17.0058 12.3699 15.5278 10.8825 13.6988 10.8767C12.6061 10.8733 11.582 11.4091 10.9618 12.3088L6.3569 10.2295C6.68398 9.43971 6.68524 8.55258 6.36045 7.76186L10.959 5.672C11.9945 7.16965 14.048 7.54425 15.5456 6.50875C17.0433 5.47326 17.4178 3.41978 16.3823 1.92213C15.3469 0.424485 13.2933 0.0498823 11.7957 1.08538C10.9038 1.70207 10.3722 2.71786 10.3739 3.80221C10.3768 3.98884 10.3958 4.17485 10.4305 4.35827L5.5419 6.57969C4.21743 5.336 2.13552 5.40149 0.891836 6.72597C0.316237 7.33901 -0.00278548 8.14913 0.000331787 8.99003Z" fill="#1890FF"/>
</svg>
