<svg width="17" height="18" viewBox="0 0 17 18" fill="none" xmlns="http://www.w3.org/2000/svg">
<path d="M8.49993 11.8325C10.0641 11.8325 11.3322 10.5645 11.3322 9.00023C11.3322 7.43602 10.0641 6.16797 8.49993 6.16797C6.93571 6.16797 5.66766 7.43602 5.66766 9.00023C5.66766 10.5645 6.93571 11.8325 8.49993 11.8325Z" fill="#1890FF"/>
<path d="M16.4807 7.17221C15.3824 5.38363 12.8844 2.38281 8.5 2.38281C4.11563 2.38281 1.61755 5.38363 0.519335 7.17221C-0.173091 8.29217 -0.173091 9.70729 0.519335 10.8273C1.61755 12.6159 4.11563 15.6167 8.5 15.6167C12.8844 15.6167 15.3824 12.6159 16.4807 10.8273C17.1731 9.70729 17.1731 8.29217 16.4807 7.17221ZM8.5 13.2482C6.15367 13.2482 4.25158 11.3461 4.25158 8.99973C4.25158 6.65341 6.15367 4.75131 8.5 4.75131C10.8463 4.75131 12.7484 6.65341 12.7484 8.99973C12.7461 11.3451 10.8454 13.2458 8.5 13.2482Z" fill="#1890FF"/>
</svg>
