<svg width="21" height="18" viewBox="0 0 21 18" fill="none" xmlns="http://www.w3.org/2000/svg">
<path d="M3.54509 17.0819H19.3079C19.3633 17.0819 19.4165 17.1039 19.4557 17.1431C19.4949 17.1823 19.5169 17.2355 19.5169 17.291C19.5169 17.3464 19.4949 17.3996 19.4557 17.4388C19.4165 17.478 19.3633 17.5 19.3079 17.5H3.54569C2.73819 17.499 1.96403 17.1778 1.39304 16.6068C0.82212 16.0359 0.500921 15.2619 0.499878 14.4545V0.709042C0.499878 0.653601 0.521902 0.60043 0.561105 0.561227C0.600308 0.522024 0.653479 0.5 0.70892 0.5C0.764362 0.5 0.817532 0.522024 0.856736 0.561227C0.895939 0.60043 0.917963 0.653601 0.917963 0.709042V14.4548C0.917963 15.1515 1.19475 15.8198 1.68743 16.3124C2.18011 16.8051 2.84833 17.0819 3.54509 17.0819Z" fill="#B7BCC0" stroke="#B7BCC0"/>
<path d="M3.28601 12.0942L6.91224 8.46801C7.30276 8.07749 7.93593 8.07749 8.32645 8.46801L10.5789 10.7205C10.9694 11.111 11.6026 11.111 11.9931 10.7205L17.6193 5.09424" stroke="#B7BCC0" stroke-width="1.5" stroke-linecap="round"/>
</svg>
