<svg width="18" height="24" viewBox="0 0 18 24" fill="none" xmlns="http://www.w3.org/2000/svg">
<path d="M10.176 11.2932C10.176 11.5725 10.0932 11.8454 9.93805 12.0776C9.78292 12.3097 9.56244 12.4907 9.30447 12.5975C9.0465 12.7044 8.76264 12.7324 8.48879 12.6779C8.21493 12.6234 7.96338 12.4889 7.76594 12.2915C7.5685 12.0941 7.43405 11.8425 7.37957 11.5687C7.3251 11.2948 7.35306 11.0109 7.45991 10.753C7.56676 10.495 7.74771 10.2745 7.97988 10.1194C8.21204 9.96427 8.48499 9.88148 8.76421 9.88148C9.13863 9.88148 9.49772 10.0302 9.76248 10.295C10.0272 10.5597 10.176 10.9188 10.176 11.2932ZM17.9407 12.705C17.9446 12.8915 17.9108 13.0768 17.8413 13.2499C17.7717 13.423 17.6679 13.5802 17.536 13.7121C17.4041 13.8439 17.2469 13.9478 17.0738 14.0173C16.9007 14.0869 16.7154 14.1207 16.5289 14.1168H16.296L16.1414 15.285C16.0273 16.1328 15.61 16.9105 14.9667 17.4743C14.3234 18.0382 13.4977 18.35 12.6423 18.3521H12.2936C12.2936 18.9137 12.0705 19.4523 11.6734 19.8495C11.2762 20.2466 10.7376 20.4697 10.176 20.4697H5.2348C4.67316 20.4697 4.13453 20.2466 3.7374 19.8495C3.34026 19.4523 3.11715 18.9137 3.11715 18.3521V17.6667C3.12834 17.0705 2.94496 16.4869 2.5948 16.0043C1.96976 15.1922 1.51178 14.2643 1.24729 13.2743C0.982791 12.2842 0.917025 11.2516 1.05378 10.2359C1.19054 9.22032 1.52712 8.24185 2.04407 7.35701C2.56103 6.47218 3.24814 5.6985 4.06572 5.08065C4.88331 4.46281 5.81518 4.01302 6.80753 3.75726C7.79989 3.50151 8.83307 3.44485 9.84745 3.59056C10.8618 3.73626 11.8373 4.08145 12.7175 4.60619C13.5978 5.13093 14.3654 5.82483 14.976 6.64783C15.871 7.75324 17.9407 11.7027 17.9407 12.705ZM11.4755 10.5499L12.1764 10.1469C12.3388 10.0533 12.4572 9.89903 12.5058 9.71807C12.5544 9.53711 12.5291 9.34426 12.4355 9.18195C12.3419 9.01963 12.1876 8.90115 12.0067 8.85257C11.8257 8.80399 11.6329 8.82928 11.4706 8.92289L10.7774 9.321C10.4179 8.95662 9.96596 8.69698 9.47009 8.56995V7.76383C9.47009 7.57662 9.39572 7.39707 9.26334 7.26469C9.13097 7.13232 8.95142 7.05795 8.76421 7.05795C8.577 7.05795 8.39745 7.13232 8.26508 7.26469C8.1327 7.39707 8.05833 7.57662 8.05833 7.76383V8.56995C7.5617 8.69662 7.109 8.95629 6.74892 9.321L6.05574 8.92289C5.97537 8.87654 5.88666 8.84647 5.79467 8.83441C5.70268 8.82234 5.60922 8.82852 5.51962 8.85257C5.43001 8.87663 5.34603 8.9181 5.27245 8.97461C5.19887 9.03112 5.13715 9.10158 5.0908 9.18195C5.04445 9.26231 5.01438 9.35103 5.00232 9.44301C4.99025 9.535 4.99643 9.62847 5.02048 9.71807C5.04454 9.80767 5.08601 9.89166 5.14252 9.96524C5.19903 10.0388 5.26949 10.1005 5.34986 10.1469L6.0508 10.5499C5.98062 10.7916 5.94358 11.0416 5.94068 11.2932C5.94426 11.5449 5.98202 11.795 6.05292 12.0365L5.35197 12.4396C5.18966 12.5332 5.07118 12.6874 5.0226 12.8684C4.97402 13.0494 4.99931 13.2422 5.09292 13.4045C5.18652 13.5668 5.34077 13.6853 5.52173 13.7339C5.70269 13.7825 5.89554 13.7572 6.05786 13.6636L6.75103 13.2655C7.11054 13.6299 7.56246 13.8895 8.05833 14.0165V14.8227C8.05833 15.0099 8.1327 15.1894 8.26508 15.3218C8.39745 15.4542 8.577 15.5285 8.76421 15.5285C8.95142 15.5285 9.13097 15.4542 9.26334 15.3218C9.39572 15.1894 9.47009 15.0099 9.47009 14.8227V14.0165C9.96672 13.8899 10.4194 13.6302 10.7795 13.2655L11.4727 13.6636C11.553 13.7099 11.6418 13.74 11.7337 13.7521C11.8257 13.7641 11.9192 13.758 12.0088 13.7339C12.0984 13.7099 12.1824 13.6684 12.256 13.6119C12.3295 13.5554 12.3913 13.4849 12.4376 13.4045C12.484 13.3242 12.514 13.2355 12.5261 13.1435C12.5382 13.0515 12.532 12.958 12.5079 12.8684C12.4839 12.7788 12.4424 12.6948 12.3859 12.6212C12.3294 12.5477 12.2589 12.4859 12.1786 12.4396L11.4776 12.0365C11.5478 11.7949 11.5848 11.5448 11.5877 11.2932C11.5842 11.0415 11.5464 10.7915 11.4755 10.5499V10.5499Z" fill="#CCCFD2"/>
</svg>
