<svg width="179" height="36" viewBox="0 0 179 36" fill="none" xmlns="http://www.w3.org/2000/svg">
<g id="SolasAi-logo">
<path id="Shape" fill-rule="evenodd" clip-rule="evenodd" d="M18.8778 4.16101H19.2086C22.7033 4.45296 25.3391 7.98919 25.1062 12.0732V12.2218C25.1062 12.3645 25.1062 12.5072 25.0655 12.6498C25.063 12.6735 25.063 12.6975 25.0655 12.7212C25.0298 12.959 24.984 13.1967 24.9332 13.4345C24.8823 13.6485 24.8263 13.8566 24.7602 14.0646C24.7602 14.0646 24.7602 14.1241 24.7347 14.1598C24.6736 14.3381 24.6075 14.5105 24.5363 14.6888C24.5214 14.7316 24.5044 14.7732 24.4854 14.8137C24.4001 15.0179 24.3049 15.2164 24.2004 15.4081C24.1037 15.5864 24.002 15.7588 23.9002 15.9312C23.6698 16.2882 23.4127 16.6204 23.1318 16.924C23.6677 16.0119 23.984 14.9484 24.0478 13.8447C24.1626 11.8667 23.4724 9.94129 22.1854 8.64915C21.6062 6.71972 20.425 5.11682 18.8778 4.16101ZM26.8973 17.3758C28.724 13.8922 27.7985 9.33917 24.8263 7.1868L24.5312 6.96091C25.399 8.46232 25.8111 10.2602 25.7015 12.0673C25.6993 12.087 25.6993 12.107 25.7015 12.1267V12.1981C25.6959 12.2614 25.6876 12.3239 25.6793 12.3862C25.6649 12.4936 25.6507 12.6002 25.6507 12.7093V12.739C26.6552 15.6946 25.605 19.0606 23.2082 20.568C23.5704 20.4505 23.923 20.2954 24.2615 20.1043C24.4234 20.0167 24.5813 19.9195 24.7347 19.813C24.9178 19.6942 25.0806 19.5635 25.2433 19.4328L25.2433 19.4328L25.2433 19.4328L25.2433 19.4328L25.2433 19.4328L25.2434 19.4328L25.2434 19.4328L25.2434 19.4327L25.2434 19.4327L25.2434 19.4327L25.2434 19.4327L25.2434 19.4327L25.2434 19.4327L25.2434 19.4327L25.2435 19.4327L25.2435 19.4327L25.2435 19.4327L25.2435 19.4327L25.2435 19.4326L25.2435 19.4326L25.2435 19.4326L25.2435 19.4326L25.2435 19.4326L25.2436 19.4326L25.2436 19.4326L25.2436 19.4326L25.3403 19.3434C25.4675 19.2305 25.5998 19.1116 25.7219 18.9867L25.783 18.9154C25.9204 18.7668 26.0577 18.6182 26.185 18.4577C26.3223 18.2853 26.4546 18.0951 26.5819 17.9048C26.5963 17.8919 26.6084 17.8757 26.6175 17.8573C26.6938 17.7384 26.765 17.6136 26.8312 17.4887C26.855 17.4525 26.877 17.4148 26.8973 17.3758ZM28.6069 12.8993C28.5509 12.7864 28.4898 12.6794 28.4288 12.5724C28.5992 14.3822 28.2425 16.2063 27.4162 17.7501V17.7917L27.3653 17.8809C27.346 17.9146 27.3275 17.9484 27.3091 17.9818L27.3091 17.9819L27.3091 17.9819C27.279 18.0367 27.2493 18.0907 27.2177 18.1424L27.1159 18.3089C26.9293 20.2741 25.9624 22.0224 24.5055 23.0288C23.6935 23.5906 22.7676 23.8882 21.8239 23.8908H21.885C22.4075 23.9954 22.9393 24.0214 23.4675 23.9681C23.6652 23.9613 23.8624 23.9395 24.0577 23.9027H24.1748C24.3631 23.873 24.5259 23.8373 24.6836 23.7897H24.7651C24.9477 23.7381 25.1278 23.6746 25.3044 23.5995C25.4978 23.5163 25.6912 23.4271 25.8794 23.3201H25.9201C26.0372 23.2547 26.1542 23.1834 26.2662 23.1061C26.3051 23.0859 26.3425 23.0621 26.3781 23.0348C29.3815 20.9481 30.3775 16.4187 28.6069 12.8993ZM22.5209 11.3538V11.8888C22.344 15.0307 20.6229 17.7673 18.1092 18.9034C18.6737 18.973 19.2437 18.953 19.8036 18.844C21.3709 18.4088 22.6432 17.0767 23.1846 15.3043C23.7259 13.5318 23.4628 11.5597 22.4853 10.0638C22.5209 10.1768 22.5209 10.2957 22.5209 10.4086V10.5572V10.8426V11.1398V11.3538ZM18.2819 19.7003H18.6585H18.7704C21.754 19.6898 24.4011 17.4625 25.355 14.1599C25.6223 16.0116 25.0712 17.8958 23.8898 19.1692C22.7084 20.4426 21.0565 20.933 19.4981 20.4731C18.9973 20.2806 18.52 20.0128 18.0784 19.6765L18.2819 19.7003ZM18.1449 20.6332L18.1448 20.6331L18.1448 20.6331L18.1447 20.6331L18.1447 20.6331L18.1447 20.633L18.1446 20.633L18.1446 20.633L18.1445 20.6329L18.1445 20.6329L18.1445 20.6329L18.1444 20.6329L18.1444 20.6328L18.1443 20.6328L18.1443 20.6328L18.1443 20.6327L18.1442 20.6327L18.1442 20.6327L18.1441 20.6327L18.1441 20.6326L18.1441 20.6326C18.0324 20.5615 17.9207 20.4903 17.8141 20.4073L17.6615 20.3003C17.9201 20.8318 18.2327 21.3248 18.5927 21.7686C19.7868 23.0179 21.4387 23.4818 22.9883 23.0028C24.538 22.5239 25.7775 21.1665 26.2865 19.3908C24.0944 21.8333 20.8006 22.3359 18.1449 20.6332L18.1449 20.6332ZM23.1417 24.7888C23.7764 24.7878 24.4081 24.6858 25.0193 24.4856C23.8906 25.7344 22.31 26.2585 20.788 25.8886C19.266 25.5188 17.9954 24.3019 17.3866 22.6309C17.3778 22.6087 17.3686 22.5865 17.3594 22.5642C17.3364 22.5088 17.3131 22.4525 17.295 22.3931C17.1511 21.7986 17.0708 21.1857 17.0558 20.5681C17.0863 20.6395 17.1169 20.7108 17.1525 20.7821C17.1881 20.8535 17.2797 21.0259 17.3509 21.1448C17.3707 21.1778 17.3847 21.2008 17.3951 21.2179C17.4221 21.2626 17.4256 21.2683 17.4476 21.3112C18.748 23.484 20.8723 24.7814 23.1417 24.7888ZM16.9185 23.5225L16.888 23.4393C16.5862 22.5686 16.4158 21.6434 16.3842 20.7048V20.3184L16.3842 20.3185L16.3842 20.3185L16.3842 20.3185L16.3841 20.3186L16.3841 20.3186L16.3841 20.3187L16.3841 20.3187L16.3841 20.3187L16.3841 20.3188L16.384 20.3188L16.384 20.3189L16.384 20.3189L16.384 20.3189L16.384 20.319L16.384 20.319L16.3839 20.3191L16.3839 20.3191L16.3839 20.3191L16.3839 20.3192C16.3484 20.3962 16.3129 20.4732 16.2824 20.5503C15.4924 22.5211 15.7573 24.849 16.9606 26.5103C18.1639 28.1717 20.0853 28.8621 21.8798 28.2782C19.6588 27.7387 17.8051 25.9619 16.9185 23.5225ZM14.2524 16.2819C14.3033 15.9846 14.3236 14.5282 13.5807 14.1894C13.3122 14.076 13.0126 14.133 12.7888 14.34C12.5649 14.547 12.4487 14.8746 12.4816 15.2059V15.3248L12.0185 14.7719C11.3112 13.375 12.8479 12.7389 12.8479 12.7389C12.8479 11.4962 13.9536 11.6479 15.2593 11.8271C16.2396 11.9616 17.3326 12.1116 18.1553 11.6986C18.0942 12.5725 16.1707 12.8221 16.1707 12.8221C16.257 12.8221 16.3757 12.836 16.5126 12.8519C16.9573 12.9038 17.5941 12.978 17.9365 12.6735C17.9365 13.268 17.9365 13.7554 16.5168 13.8089C17.3767 14.766 17.509 17.3757 16.4455 18.9034C16.1705 19.3373 15.9319 19.8011 15.7331 20.2885C14.9466 22.2388 14.8604 24.4756 15.494 26.5006C15.6176 26.8873 15.7656 27.2628 15.9367 27.6241V27.737L15.7789 28.5336L15.6365 29.4015L15.5754 29.7522L14.8426 34.1572L14.0794 29.3599L13.9369 28.5336L13.9013 28.3077L13.8097 27.7132L13.4433 25.4127L13.1634 23.6591C12.8302 22.116 12.8547 20.4971 13.2347 18.9688C13.2703 18.8261 13.311 18.6835 13.3517 18.5408C13.3924 18.3981 13.4484 18.2138 13.5044 18.0533C13.5437 17.9406 13.5554 17.9129 13.5694 17.8797C13.5754 17.8656 13.5818 17.8505 13.5909 17.8275C13.6672 17.6194 13.7537 17.4113 13.8453 17.233L14.2066 16.3948C14.2202 16.3696 14.2289 16.3412 14.232 16.3116L14.2524 16.2819ZM13.3925 12.8224C13.3925 12.8224 13.3416 12.6263 13.5655 12.4836C13.9515 12.3348 14.365 12.3122 14.7613 12.4182C14.7257 12.6917 13.6062 12.9413 13.3925 12.8224ZM12.975 26.3462C11.8086 28.2623 9.73558 29.1124 7.79994 28.4684C9.00883 28.1745 10.1282 27.5074 11.0413 26.5364C11.6932 25.8411 12.2267 25.0081 12.6137 24.0813L12.975 26.3462ZM8.98441 26.0472C10.5357 25.6398 11.8099 24.3532 12.3794 22.6189C12.3394 22.2104 12.319 21.7996 12.3183 21.3884C11.0183 23.6253 8.85218 24.9618 6.53779 24.9551C5.90259 24.9555 5.27051 24.8514 4.66013 24.646C5.81017 25.9287 7.43309 26.4546 8.98441 26.0472ZM12.0283 20.443C11.7697 20.9778 11.4552 21.4731 11.092 21.9173C9.89797 23.1638 8.2476 23.6259 6.69955 23.1472C5.15151 22.6684 3.91302 21.3129 3.40329 19.5394C4.70167 20.9726 6.4206 21.7703 8.20685 21.7686C9.3645 21.7789 10.5056 21.4476 11.5246 20.8056C11.6365 20.7402 11.7485 20.663 11.8553 20.5857L12.0283 20.443ZM5.79964 19.3416C6.97977 20.6088 8.62681 21.0967 10.1812 20.6394C10.6841 20.4597 11.1661 20.2081 11.6162 19.8904H11.4127H10.9038C7.91856 19.8902 5.26832 17.6585 4.32435 14.3501C4.06495 16.198 4.61951 18.0743 5.79964 19.3416ZM11.5704 19.07C11.0041 19.1395 10.4325 19.1195 9.87082 19.0105C8.31497 18.5602 7.05739 17.2257 6.52445 15.4597C5.99151 13.6937 6.2547 11.733 7.22479 10.2423C7.22479 10.3552 7.22479 10.4682 7.18917 10.5752V10.7357V11.0151V11.3242V11.5263V12.0613C7.36395 15.1918 9.07102 17.9226 11.5704 19.07ZM10.8019 4.35724H10.4711C6.99107 4.67993 4.38398 8.21907 4.62952 12.2873V12.4299C4.63362 12.4898 4.64102 12.5487 4.6484 12.6074C4.65934 12.6945 4.67023 12.7811 4.67023 12.8698C4.6731 12.8915 4.6731 12.9136 4.67023 12.9352C4.70585 13.173 4.75165 13.4108 4.80253 13.6426L4.81948 13.7041C4.86583 13.8725 4.91665 14.0572 4.97554 14.2371V14.3381C5.0366 14.5165 5.10275 14.6889 5.17399 14.8613L5.21979 15.0099L5.23645 15.0456C5.32362 15.2324 5.41898 15.4367 5.50984 15.6043C5.60652 15.7827 5.70829 15.9551 5.81006 16.1215C6.04036 16.4803 6.2975 16.8145 6.57842 17.1202C5.04311 14.4892 5.45114 10.9296 7.52489 8.86321C8.09325 6.9332 9.26334 5.3243 10.8019 4.35724ZM4.87399 7.32942L5.15895 7.13325C4.29039 8.63649 3.87831 10.4365 3.98859 12.2456C3.99106 12.2633 3.99106 12.2814 3.98859 12.2991V12.3645C3.98859 12.5155 4.01202 12.6711 4.03493 12.8232L4.04456 12.8876C3.03538 15.8463 4.08886 19.2186 6.49214 20.7225C6.1285 20.6041 5.77436 20.4489 5.43373 20.2588C5.27183 20.1712 5.11388 20.074 4.96049 19.9676H4.92996C4.76713 19.8546 4.61447 19.7357 4.46182 19.6109L4.36514 19.5217C4.23226 19.4092 4.10485 19.2881 3.9835 19.1591L3.92244 19.0937C3.78505 18.9451 3.64766 18.7965 3.52044 18.63C3.38305 18.4517 3.25075 18.2615 3.12354 18.0712L3.05739 18.0356L2.83858 17.6611L2.76734 17.5362C0.946929 14.0493 1.8791 9.49942 4.85363 7.3532L4.87399 7.32942ZM1.25099 12.7508C1.18993 12.8578 1.12887 12.9648 1.07289 13.0778C-0.677587 16.5911 0.315883 21.0957 3.30167 23.1835L3.39835 23.344C3.5103 23.4213 3.62733 23.4926 3.74437 23.558H3.77999C3.96826 23.665 4.16163 23.7542 4.35499 23.8374C4.53309 23.9088 4.71119 23.9741 4.89437 24.0276H4.97579C5.02471 24.0403 5.07218 24.0543 5.11858 24.068L5.1186 24.068C5.24595 24.1055 5.3653 24.1406 5.48464 24.1406H5.60168C5.79909 24.1727 5.99782 24.1925 6.19703 24.2C6.73285 24.2286 7.26963 24.1787 7.79483 24.0514H7.85589C5.13546 24.0305 2.86108 21.6293 2.56892 18.4695C2.55598 18.4479 2.54572 18.4294 2.53547 18.411L2.53546 18.411L2.53544 18.4109C2.51749 18.3786 2.49953 18.3463 2.46715 18.2971C2.43577 18.2494 2.40826 18.1995 2.38105 18.1501L2.38103 18.1501L2.38103 18.1501L2.38102 18.1501L2.38102 18.1501L2.38102 18.1501L2.38101 18.1501L2.38101 18.1501L2.381 18.1501C2.3641 18.1194 2.3473 18.0889 2.32976 18.0593L2.2687 17.9523C2.26967 17.9365 2.26967 17.9206 2.2687 17.9048C1.44439 16.3687 1.08597 14.5535 1.25099 12.7508ZM0.00433681 20.1758V19.7894C0.585122 21.4717 1.63366 22.8767 2.98112 23.7782L3.02183 23.8079L3.11342 23.8673L3.33732 24.01L3.48997 24.1051C4.43965 25.7414 5.99266 26.7608 7.68291 26.8574H7.93734C8.7925 26.8594 9.63549 26.6208 10.3951 26.1619C10.1082 26.4455 9.79996 26.6982 9.47407 26.9169C9.32068 27.0233 9.16273 27.1206 9.00084 27.2082C8.81765 27.3092 8.63446 27.3924 8.45128 27.4697L8.33424 27.5173C8.1765 27.5767 8.02384 27.6302 7.8661 27.6778H7.77959C7.59844 27.7308 7.41499 27.7725 7.23003 27.8026C7.02649 27.8383 6.81786 27.8621 6.61432 27.874H6.02914C2.55884 27.6592 -0.122755 24.2328 0.00433681 20.1758ZM5.49819 30.8808C7.08235 31.5497 8.82909 31.456 10.3541 30.6202C11.5374 29.9725 12.519 28.9109 13.1629 27.5825L13.112 27.2734C12.1012 28.6293 10.6363 29.4058 9.0972 29.4016C8.20945 29.3986 7.33586 29.1415 6.55294 28.6526H6.36467H5.98812C4.43692 28.5694 2.95398 27.8831 1.77482 26.7027C1.81553 26.8216 1.86133 26.9405 1.90712 27.0535C2.62227 28.8352 3.91404 30.2119 5.49819 30.8808ZM10.965 32.8255C11.4331 30.8044 12.2269 30.0613 13.3973 29.0032L13.494 29.5976L11.9013 33.5508C11.62 33.2587 11.3047 33.0146 10.965 32.8255ZM12.3951 33.9848L12.217 33.8837L12.6394 34.3533L12.6647 34.3815L12.6647 34.3815C13.2824 35.068 13.9095 35.7649 14.5069 35.9643L13.6825 30.7925L12.3951 33.9848ZM17.0409 34.3534L16.9625 34.442C16.3534 35.1318 15.7528 35.8119 15.1428 36L16.0028 30.8283L17.3055 34.0027L17.4836 33.9016L17.0409 34.3534ZM16.1962 29.6335L17.7787 33.5569V33.5747C18.054 33.2756 18.3641 33.0235 18.6997 32.8257C18.2316 30.7986 17.448 30.0734 16.2878 29.0152L16.1962 29.6335ZM27.7722 26.881C26.2789 30.586 22.5011 32.1812 19.3252 30.4478C18.1636 29.8119 17.1972 28.7743 16.5571 27.4755C16.3873 27.1382 16.2393 26.7864 16.1144 26.4233C16.1064 26.3946 16.0962 26.3667 16.0838 26.3401C17.5963 29.0872 20.6615 30.016 23.1264 28.4742H23.3146H23.6861C25.2396 28.3951 26.7252 27.7084 27.9045 26.5244C27.8836 26.5855 27.8613 26.6434 27.8384 26.7031C27.8167 26.7595 27.7944 26.8175 27.7722 26.881ZM23.0756 27.767H23.6506C27.134 27.5398 29.8095 24.0747 29.6448 20.0034V19.617C29.0764 21.336 28.0226 22.7767 26.6579 23.7009L26.5714 23.7604C26.5499 23.7738 26.5284 23.7876 26.5068 23.8016C26.4517 23.8371 26.3958 23.8731 26.3373 23.903L26.1897 23.9982C25.24 25.6345 23.687 26.6539 21.9968 26.7505H21.7424C20.8855 26.7449 20.0425 26.4981 19.2846 26.0312C19.5726 26.3148 19.8807 26.5694 20.2056 26.7921C20.3583 26.8932 20.4957 26.9764 20.6789 27.0774C20.862 27.1785 21.0452 27.2617 21.2284 27.3449L21.3302 27.4044C21.3442 27.4097 21.3581 27.4149 21.372 27.4202C21.515 27.4742 21.6546 27.527 21.7983 27.5649H21.8848C22.0743 27.621 22.2662 27.6647 22.4598 27.6957C22.6639 27.7315 22.8694 27.7553 23.0756 27.767Z" fill="url(#paint0_radial_75:927)"/>
<path id="Path" d="M14.761 0C15.3106 1.32564 15.1936 2.51455 13.8756 4.16119L13.5856 2.97228C12.9673 3.65 12.5607 4.54974 12.4305 5.52844C12.4281 5.54016 12.4281 5.55238 12.4305 5.56411C12.4305 5.65327 12.4305 5.74244 12.4305 5.83755V5.87917C12.4349 6.91892 12.9437 7.8658 13.7433 8.32238C12.7256 5.62355 14.761 4.82698 14.761 4.82698C13.3515 6.89569 15.2444 8.43533 15.8296 6.39634C15.8296 6.39634 16.023 7.95382 15.7787 8.32238C16.5918 7.86824 17.1086 6.90818 17.1068 5.85539C17.0505 3.60892 16.2015 1.48966 14.761 0Z" fill="#D41D00"/>
<path id="Path_2" d="M45.8011 20.9663C41.5166 20.9663 38.6314 20.6929 37.6035 20.2827C36.5757 19.8725 36.25 18.9214 36.25 17.8335C36.25 16.3414 36.8504 15.3963 38.148 14.8256C39.4456 14.2549 41.4861 13.8447 44.9463 13.8447C47.7351 13.8554 50.5176 14.1558 53.2609 14.7424L52.9352 17.0607C50.2956 16.5374 47.6237 16.267 44.9463 16.2523C42.3104 16.2523 40.6617 16.4247 39.7814 16.7516C39.237 16.9597 39.0741 17.2331 39.0741 17.679C39.0741 18.1248 39.2522 18.3685 39.7662 18.5053C41.3399 18.6917 42.9226 18.7552 44.5036 18.6955C46.6255 18.6955 50.1875 18.6955 52.0855 19.2424C53.612 19.6585 54.0853 20.6512 54.0853 21.959C54.0853 23.4571 53.7189 24.3369 52.6706 24.9313C51.3171 25.6922 48.3912 26.0192 45.5467 26.0192C42.5101 26.0498 39.4781 25.7333 36.4942 25.074L36.7741 22.7675C39.676 23.306 42.6085 23.5882 45.5467 23.6116C48.208 23.6116 49.6786 23.4571 50.5945 23.1123C51.0172 23.0194 51.3102 22.5664 51.2713 22.066C51.2713 21.6143 51.0932 21.2873 50.4012 21.1684C48.8723 21.0002 47.3365 20.9327 45.8011 20.9663Z" fill="#D41D00"/>
<path id="Shape_2" fill-rule="evenodd" clip-rule="evenodd" d="M69.3863 13.8032C65.9719 13.8032 63.4988 14.4928 62.0842 15.4558C60.7867 16.3415 60.0488 17.5958 60.0488 19.9023C60.0488 22.2088 60.746 23.4453 62.0842 24.337C63.4938 25.3 65.9566 25.9777 69.3812 25.9777C72.8057 25.9777 75.2635 25.2881 76.6781 24.3251C77.9909 23.4572 78.7135 22.1613 78.7135 19.8904C78.7135 17.6196 77.9706 16.3297 76.6781 15.4558C75.2635 14.5047 72.8007 13.8032 69.3863 13.8032ZM69.3863 23.3086C67.1016 23.3086 65.1018 23.0292 64.1604 22.4347L64.1553 22.4466C63.3081 21.9957 62.7919 20.9749 62.8628 19.8904C62.7987 18.8231 63.3104 17.8221 64.1451 17.3818C65.0865 16.8111 67.0659 16.4664 69.3863 16.4664C71.7067 16.4664 73.681 16.7874 74.6224 17.3818C75.4571 17.8221 75.9688 18.8231 75.9047 19.8904C75.9704 20.9721 75.4527 21.9872 74.6071 22.4347C73.6505 22.9994 71.6711 23.3086 69.3863 23.3086Z" fill="#D41D00"/>
<path id="Path_3" d="M88.0356 23.0828H99.7086V25.746H85.2318V14.059H88.0356V23.0828Z" fill="#D41D00"/>
<path id="Shape_3" fill-rule="evenodd" clip-rule="evenodd" d="M110.033 23.6H119.701L121.376 25.746H124.79V25.5914L115.875 14.059H113.875L104.955 25.5914V25.746H108.369L110.033 23.6ZM118.058 21.4839H111.651L113.091 19.6173C113.946 18.5175 114.827 17.2097 114.827 17.2097H114.888C114.888 17.2097 115.799 18.5175 116.653 19.6173L118.058 21.4839Z" fill="#D41D00"/>
<path id="Path_4" d="M139.73 20.9664C135.45 20.9664 132.565 20.6929 131.537 20.2827C130.509 19.8726 130.194 18.9214 130.194 17.8039C130.194 16.3118 130.8 15.3666 132.092 14.7959C133.384 14.2252 135.435 13.8151 138.895 13.8151C141.682 13.8256 144.463 14.126 147.205 14.7127L146.884 17.0311C144.253 16.5096 141.59 16.2392 138.921 16.2226C136.285 16.2226 134.636 16.395 133.751 16.722C133.206 16.93 133.049 17.2035 133.049 17.6493C133.049 18.0951 133.222 18.3389 133.741 18.4756C135.314 18.6622 136.897 18.7257 138.478 18.6658C140.595 18.6658 144.157 18.6658 146.055 19.2127C147.556 19.6288 148.055 20.6216 148.055 21.9294C148.055 23.4274 147.688 24.3072 146.645 24.9017C145.292 25.6626 142.361 25.9895 139.521 25.9895C136.486 26.0203 133.456 25.7037 130.474 25.0443L130.754 22.7378C133.654 23.2764 136.585 23.5585 139.521 23.582C142.188 23.582 143.658 23.4274 144.569 23.0826C144.992 22.9897 145.285 22.5368 145.246 22.0364C145.246 21.5846 145.068 21.2576 144.381 21.1388C142.834 20.9786 141.282 20.9211 139.73 20.9664Z" fill="#D41D00"/>
<path id="Shape_4" fill-rule="evenodd" clip-rule="evenodd" d="M158.486 23.6H168.154L169.828 25.746H173.243V25.5914L164.328 14.059H162.328L153.408 25.5914V25.746H156.822L158.486 23.6ZM166.531 21.484H160.104L161.55 19.6471C162.404 18.5473 163.285 17.2395 163.285 17.2395H163.346C163.346 17.2395 164.252 18.5295 165.106 19.6174L166.531 21.484Z" fill="#112635"/>
<path id="Path_5" d="M178.311 25.746H175.518V14.059H178.311V25.746Z" fill="#112635"/>
</g>
<defs>
<radialGradient id="paint0_radial_75:927" cx="0" cy="0" r="1" gradientUnits="userSpaceOnUse" gradientTransform="translate(14.4251 43.1572) scale(24.7861 26.6141)">
<stop stop-color="#FFEA6A"/>
<stop offset="1" stop-color="#D41D00"/>
</radialGradient>
</defs>
</svg>
